<svg version="1.2" xmlns="http://www.w3.org/2000/svg" viewBox="0 0 126 53" width="126" height="53"><style>.a{fill:#fe3e57}</style><path class="a" d="m122.5 51.3c0-1 0.8-1.8 1.8-1.8 0.9 0 1.7 0.8 1.7 1.8 0 0.9-0.8 1.7-1.7 1.7-1 0-1.8-0.8-1.8-1.7zm-13.7 0c0-1 0.8-1.8 1.7-1.8 1 0 1.8 0.8 1.8 1.8 0 0.9-0.8 1.7-1.8 1.7-0.9 0-1.7-0.8-1.7-1.7zm-13.5 0c0-1 0.8-1.8 1.8-1.8 0.9 0 1.7 0.8 1.7 1.8 0 0.9-0.8 1.7-1.7 1.7-1 0-1.8-0.8-1.8-1.7zm-13.7 0c0-1 0.8-1.8 1.7-1.8 1 0 1.8 0.8 1.8 1.8 0 0.9-0.8 1.7-1.8 1.7-0.9 0-1.7-0.8-1.7-1.7zm-13.5 0c0-1 0.8-1.8 1.8-1.8 0.9 0 1.7 0.8 1.7 1.8 0 0.9-0.8 1.7-1.7 1.7-1 0-1.8-0.8-1.8-1.7zm-13.7 0c0-1 0.8-1.8 1.7-1.8 1 0 1.8 0.8 1.8 1.8 0 0.9-0.8 1.7-1.8 1.7-0.9 0-1.7-0.8-1.7-1.7zm-13.5 0c0-1 0.8-1.8 1.8-1.8 0.9 0 1.7 0.8 1.7 1.8 0 0.9-0.8 1.7-1.7 1.7-1 0-1.8-0.8-1.8-1.7zm-13.7 0c0-1 0.8-1.8 1.7-1.8 1 0 1.8 0.8 1.8 1.8 0 0.9-0.8 1.7-1.8 1.7-0.9 0-1.7-0.8-1.7-1.7zm-13.5 0c0-1 0.8-1.8 1.8-1.8 0.9 0 1.7 0.8 1.7 1.8 0 0.9-0.8 1.7-1.7 1.7-1 0-1.8-0.8-1.8-1.7zm-13.7 0c0-1 0.8-1.8 1.7-1.8 1 0 1.8 0.8 1.8 1.8 0 0.9-0.8 1.7-1.8 1.7-0.9 0-1.7-0.8-1.7-1.7zm122.5-16.5c0-1 0.8-1.8 1.8-1.8 0.9 0 1.7 0.8 1.7 1.8 0 0.9-0.8 1.7-1.7 1.7-1 0-1.8-0.8-1.8-1.7zm-13.7 0c0-1 0.8-1.8 1.7-1.8 1 0 1.8 0.8 1.8 1.8 0 0.9-0.8 1.7-1.8 1.7-0.9 0-1.7-0.8-1.7-1.7zm-13.5 0c0-1 0.8-1.8 1.8-1.8 0.9 0 1.7 0.8 1.7 1.8 0 0.9-0.8 1.7-1.7 1.7-1 0-1.8-0.8-1.8-1.7zm-13.7 0c0-1 0.8-1.8 1.7-1.8 1 0 1.8 0.8 1.8 1.8 0 0.9-0.8 1.7-1.8 1.7-0.9 0-1.7-0.8-1.7-1.7zm-13.5 0c0-1 0.8-1.8 1.8-1.8 0.9 0 1.7 0.8 1.7 1.8 0 0.9-0.8 1.7-1.7 1.7-1 0-1.8-0.8-1.8-1.7zm-13.7 0c0-1 0.8-1.8 1.7-1.8 1 0 1.8 0.8 1.8 1.8 0 0.9-0.8 1.7-1.8 1.7-0.9 0-1.7-0.8-1.7-1.7zm-13.5 0c0-1 0.8-1.8 1.8-1.8 0.9 0 1.7 0.8 1.7 1.8 0 0.9-0.8 1.7-1.7 1.7-1 0-1.8-0.8-1.8-1.7zm-13.7 0c0-1 0.8-1.8 1.7-1.8 1 0 1.8 0.8 1.8 1.8 0 0.9-0.8 1.7-1.8 1.7-0.9 0-1.7-0.8-1.7-1.7zm-13.5 0c0-1 0.8-1.8 1.8-1.8 0.9 0 1.7 0.8 1.7 1.8 0 0.9-0.8 1.7-1.7 1.7-1 0-1.8-0.8-1.8-1.7zm-13.7 0c0-1 0.8-1.8 1.7-1.8 1 0 1.8 0.8 1.8 1.8 0 0.9-0.8 1.7-1.8 1.7-0.9 0-1.7-0.8-1.7-1.7zm122.5-16.6c0-0.9 0.8-1.7 1.8-1.7 0.9 0 1.7 0.8 1.7 1.7 0 1-0.8 1.8-1.7 1.8-1 0-1.8-0.8-1.8-1.8zm-13.7 0c0-0.9 0.8-1.7 1.7-1.7 1 0 1.8 0.8 1.8 1.7 0 1-0.8 1.8-1.8 1.8-0.9 0-1.7-0.8-1.7-1.8zm-13.5 0c0-0.9 0.8-1.7 1.8-1.7 0.9 0 1.7 0.8 1.7 1.7 0 1-0.8 1.8-1.7 1.8-1 0-1.8-0.8-1.8-1.8zm-13.7 0c0-0.9 0.8-1.7 1.7-1.7 1 0 1.8 0.8 1.8 1.7 0 1-0.8 1.8-1.8 1.8-0.9 0-1.7-0.8-1.7-1.8zm-13.5 0c0-0.9 0.8-1.7 1.8-1.7 0.9 0 1.7 0.8 1.7 1.7 0 1-0.8 1.8-1.7 1.8-1 0-1.8-0.8-1.8-1.8zm-13.7 0c0-0.9 0.8-1.7 1.7-1.7 1 0 1.8 0.8 1.8 1.7 0 1-0.8 1.8-1.8 1.8-0.9 0-1.7-0.8-1.7-1.8zm-13.5 0c0-0.9 0.8-1.7 1.8-1.7 0.9 0 1.7 0.8 1.7 1.7 0 1-0.8 1.8-1.7 1.8-1 0-1.8-0.8-1.8-1.8zm-13.7 0c0-0.9 0.8-1.7 1.7-1.7 1 0 1.8 0.8 1.8 1.7 0 1-0.8 1.8-1.8 1.8-0.9 0-1.7-0.8-1.7-1.8zm-13.5 0c0-0.9 0.8-1.7 1.8-1.7 0.9 0 1.7 0.8 1.7 1.7 0 1-0.8 1.8-1.7 1.8-1 0-1.8-0.8-1.8-1.8zm-13.7 0c0-0.9 0.8-1.7 1.7-1.7 1 0 1.8 0.8 1.8 1.7 0 1-0.8 1.8-1.8 1.8-0.9 0-1.7-0.8-1.7-1.8zm122.5-16.5c0-0.9 0.8-1.7 1.8-1.7 0.9 0 1.7 0.8 1.7 1.7 0 1-0.8 1.8-1.7 1.8-1 0-1.8-0.8-1.8-1.8zm-13.7 0c0-0.9 0.8-1.7 1.7-1.7 1 0 1.8 0.8 1.8 1.7 0 1-0.8 1.8-1.8 1.8-0.9 0-1.7-0.8-1.7-1.8zm-13.5 0c0-0.9 0.8-1.7 1.8-1.7 0.9 0 1.7 0.8 1.7 1.7 0 1-0.8 1.8-1.7 1.8-1 0-1.8-0.8-1.8-1.8zm-13.7 0c0-0.9 0.8-1.7 1.7-1.7 1 0 1.8 0.8 1.8 1.7 0 1-0.8 1.8-1.8 1.8-0.9 0-1.7-0.8-1.7-1.8zm-13.5 0c0-0.9 0.8-1.7 1.8-1.7 0.9 0 1.7 0.8 1.7 1.7 0 1-0.8 1.8-1.7 1.8-1 0-1.8-0.8-1.8-1.8zm-13.7 0c0-0.9 0.8-1.7 1.7-1.7 1 0 1.8 0.8 1.8 1.7 0 1-0.8 1.8-1.8 1.8-0.9 0-1.7-0.8-1.7-1.8zm-13.5 0c0-0.9 0.8-1.7 1.8-1.7 0.9 0 1.7 0.8 1.7 1.7 0 1-0.8 1.8-1.7 1.8-1 0-1.8-0.8-1.8-1.8zm-13.7 0c0-0.9 0.8-1.7 1.7-1.7 1 0 1.8 0.8 1.8 1.7 0 1-0.8 1.8-1.8 1.8-0.9 0-1.7-0.8-1.7-1.8zm-13.5 0c0-0.9 0.8-1.7 1.8-1.7 0.9 0 1.7 0.8 1.7 1.7 0 1-0.8 1.8-1.7 1.8-1 0-1.8-0.8-1.8-1.8zm-13.7 0c0-0.9 0.8-1.7 1.7-1.7 1 0 1.8 0.8 1.8 1.7 0 1-0.8 1.8-1.8 1.8-0.9 0-1.7-0.8-1.7-1.8z"/></svg>