<svg version="1.2" xmlns="http://www.w3.org/2000/svg" viewBox="0 0 20 20" width="20" height="20"><style>.a{fill:#8d8d8d}</style><path fill-rule="evenodd" class="a" d="m17.1 12.9c-1.1-1.1-2.4-1.9-3.8-2.4 1.5-1 2.5-2.7 2.5-4.7 0-3.2-2.6-5.8-5.8-5.8-3.2 0-5.8 2.6-5.8 5.8 0 2 1 3.7 2.5 4.7-1.4 0.5-2.7 1.3-3.8 2.4-1.9 1.9-2.9 4.4-2.9 7.1h1.6c0-4.7 3.7-8.4 8.4-8.4 4.7 0 8.4 3.7 8.4 8.4h1.6c0-2.7-1-5.2-2.9-7.1zm-11.3-7.1c0-2.3 1.9-4.2 4.2-4.2 2.3 0 4.2 1.9 4.2 4.2 0 2.3-1.9 4.2-4.2 4.2-2.3 0-4.2-1.9-4.2-4.2z"/></svg>