<svg version="1.2" xmlns="http://www.w3.org/2000/svg" viewBox="0 0 40 25" width="40" height="25"><style>.a{fill:#fff}</style><path fill-rule="evenodd" class="a" d="m40 13.8v6.6c0 0.4-0.3 0.6-0.6 0.6h-2.1q0 0.1 0 0.1c0 2.1-1.8 3.9-3.9 3.9-2.2 0-4-1.8-4-3.9q0 0 0-0.1h-14.1q0 0.1 0 0.1c0 2.1-1.8 3.9-4 3.9-2.2 0-4-1.8-4-3.9q0 0 0-0.1h-3.3c-0.8 0-1.3-0.5-1.3-1.2v-1.4h-2.1c-0.3 0-0.6-0.3-0.6-0.6 0-0.4 0.3-0.6 0.6-0.6h6c0.4 0 0.7 0.2 0.7 0.6 0 0.3-0.3 0.6-0.7 0.6h-2.7v1.4q0 0 0.1 0h3.6c0.5-1.5 2-2.6 3.7-2.6 1.7 0 3.2 1.1 3.8 2.6h13v-4.7c0-0.3 0.2-0.6 0.6-0.6 0.3 0 0.6 0.3 0.6 0.6v4.7h0.3c0.5-1.5 2-2.6 3.8-2.6 1.7 0 3.2 1.1 3.7 2.6h1.6v-2.7h-0.7c-1 0-1.9-0.9-1.9-2v-1.3c0-0.3 0.3-0.6 0.6-0.6h1.9c-0.2-0.8-1-1.4-1.9-1.4q0 0 0 0c0 0-7.4 0-7.4 0v0.7c0 0.3-0.3 0.6-0.6 0.6-0.4 0-0.6-0.3-0.6-0.6v-11.2q0-0.1-0.1-0.1h-24q-0.1 0-0.1 0.1v11.2c0 0.3-0.3 0.6-0.6 0.6-0.4 0-0.6-0.3-0.6-0.6v-11.2c0-0.7 0.5-1.3 1.3-1.3h24c0.7 0 1.3 0.6 1.3 1.3v1.3h4.7c1.5 0 2.7 1.2 2.7 2.6v0.7c0 0.3-0.3 0.5-0.5 0.6l1 4.1c1.6 0.2 2.8 1.6 2.8 3.2zm-10.7-3.2h6.6l-1-4.1h-5.6zm0-6.7v1.4h6.1c0-0.8-0.6-1.4-1.4-1.4zm-15.3 17.2c0-1.4-1.2-2.6-2.7-2.6-1.5 0-2.7 1.2-2.7 2.6 0 1.5 1.2 2.7 2.7 2.7 1.5 0 2.7-1.2 2.7-2.7zm22.1 0c0-1.4-1.2-2.6-2.7-2.6-1.5 0-2.7 1.2-2.7 2.6 0 1.5 1.2 2.7 2.7 2.7 1.5 0 2.7-1.2 2.7-2.7zm2.7-5.2v-1.4h-1.5v0.7c0 0.4 0.4 0.7 0.8 0.7zm-26.2 5.2c0 0.7-0.6 1.3-1.3 1.3-0.7 0-1.3-0.6-1.3-1.3 0-0.7 0.6-1.2 1.3-1.2 0.7 0 1.3 0.5 1.3 1.2zm22.1 0c0 0.7-0.6 1.3-1.3 1.3-0.7 0-1.3-0.6-1.3-1.3 0-0.7 0.6-1.2 1.3-1.2 0.7 0 1.3 0.5 1.3 1.2zm-18-3.9h9.3c0.4 0 0.6 0.3 0.6 0.6 0 0.4-0.2 0.7-0.6 0.7h-9.3c-0.4 0-0.7-0.3-0.7-0.7 0-0.3 0.3-0.6 0.7-0.6zm-15.4-2c0-0.3 0.3-0.6 0.7-0.6h8c0.3 0 0.6 0.3 0.6 0.6 0 0.3-0.3 0.6-0.6 0.6h-8c-0.4 0-0.7-0.3-0.7-0.6zm20.5-9c0.2 0.2 0.2 0.6 0 0.9l-6 5.9q-0.2 0.2-0.5 0.2-0.2 0-0.4-0.2l-3.4-3.3c-0.2-0.2-0.2-0.6 0-0.9 0.3-0.2 0.7-0.2 0.9 0l2.9 2.9 5.6-5.5c0.2-0.3 0.6-0.3 0.9 0z"/></svg>