<svg version="1.2" xmlns="http://www.w3.org/2000/svg" viewBox="0 0 26 25" width="26" height="25"><style>.a{fill:#fff}</style><path fill-rule="evenodd" class="a" d="m25.4 11.7c0.8 0.7 0.8 1.7 0.1 2.5l-4.2 4.8q-0.2 0.3-0.6 0.6 0 0 0 0-1 0.6-2.5 0.6h-6.2q-0.6 0-1.3 0.1h-0.7l0.3 0.3q0.2 0.2 0.2 0.4 0 0.2-0.2 0.3l-3.5 3.5q-0.1 0.2-0.3 0.2-0.2 0-0.4-0.1l-5.9-5.6q-0.2-0.1-0.2-0.3 0-0.2 0.1-0.4l3.6-3.6q0.1-0.1 0.3-0.1 0 0 0 0 0.2 0 0.4 0.1l0.7 0.7c0.3-0.4 0.7-0.9 1.3-1.4 1.5-1.2 3.3-1.5 5.1-1q1.1 0.3 2.2 0.3h4.1c0.6 0 1.1 0.2 1.4 0.6q0.2 0.1 0.2 0.3l2.9-2.8c0.5-0.4 1-0.6 1.6-0.6 0.6 0 1.1 0.2 1.5 0.6zm-16.1 9.3l-5.2-4.9-2.9 2.8 5.3 4.9zm15.4-7.4c0.5-0.6 0.2-1 0-1.2-0.4-0.4-1.2-0.5-1.6 0l-3.4 3.2c0 0.5-0.1 0.9-0.4 1.3-0.4 0.4-0.9 0.6-1.5 0.6h-3.5c-0.3 0-0.6-0.2-0.6-0.5 0-0.3 0.3-0.5 0.6-0.5h3.5q0.4 0 0.7-0.3c0.1-0.2 0.2-0.4 0.2-0.7 0-0.3-0.2-1-0.9-1h-4q-1.3 0-2.5-0.3-2.3-0.6-4.2 0.9c-0.6 0.5-1 1-1.2 1.3l3.2 3 1.5-0.1q0.7-0.1 1.4-0.1h6.2q1.2 0 1.9-0.5 0.3-0.2 0.5-0.4zm-12.1 3.4c0.1 0.2-0.1 0.5-0.4 0.6q0 0-0.1 0c-0.2 0-0.4-0.2-0.5-0.4 0-0.3 0.1-0.6 0.4-0.6 0.3-0.1 0.6 0.1 0.6 0.3zm-9.2-6.3c-0.7 0-1.2-0.6-1.2-1.2v-2.3c0-1 0.6-1.9 1.4-2.3-0.4-0.5-0.6-1.2-0.6-1.9 0-1.6 1.3-2.9 2.9-2.9 1.6 0 3 1.3 3 2.9 0 0.7-0.3 1.4-0.7 1.9q0.6 0.2 0.9 0.7 0.4-0.5 1-0.7c-0.4-0.5-0.7-1.2-0.7-1.9 0-1.6 1.3-2.9 2.9-2.9 1.7 0 3 1.3 3 2.9 0 0.7-0.3 1.4-0.7 1.9q0.6 0.2 1 0.7 0.3-0.5 0.9-0.7c-0.4-0.5-0.7-1.2-0.7-1.9 0-1.6 1.4-2.9 3-2.9 1.6 0 2.9 1.3 2.9 2.9 0 0.7-0.2 1.4-0.6 1.9 0.8 0.4 1.4 1.3 1.4 2.3v2.3c0 0.6-0.5 1.2-1.2 1.2h-5q-0.4 0-0.7-0.3-0.3 0.3-0.8 0.3h-4.9q-0.5 0-0.8-0.3-0.3 0.3-0.7 0.3zm15.4-9.6c-1.1 0-2 0.9-2 1.9 0 1.1 0.9 1.9 2 1.9 1 0 1.9-0.8 1.9-1.9 0-1-0.9-1.9-1.9-1.9zm-1.4 4.5c-0.8 0.1-1.3 0.8-1.3 1.6v2.3c0 0.1 0.1 0.2 0.2 0.2h5c0.1 0 0.2-0.1 0.2-0.2v-2.3c0-0.8-0.6-1.5-1.4-1.6q-0.6 0.3-1.3 0.3-0.8 0-1.4-0.3zm-5.1-4.5c-1 0-1.9 0.9-1.9 1.9 0 1.1 0.9 1.9 1.9 1.9 1.1 0 2-0.8 2-1.9 0-1-0.9-1.9-2-1.9zm-1.3 4.5c-0.8 0.1-1.4 0.8-1.4 1.6v2.3c0 0.1 0.1 0.2 0.2 0.2h5c0.1 0 0.2-0.1 0.2-0.2v-2.3c0-0.8-0.5-1.5-1.3-1.6q-0.6 0.3-1.4 0.3-0.7 0-1.3-0.3zm-5.1-4.5c-1.1 0-1.9 0.9-1.9 1.9 0 1.1 0.8 1.9 1.9 1.9 1.1 0 1.9-0.8 1.9-1.9 0-1-0.8-1.9-1.9-1.9zm-2.7 8.4c0 0.1 0.1 0.2 0.2 0.2h5c0.1 0 0.2-0.1 0.2-0.2v-2.3c0-0.8-0.6-1.5-1.4-1.6q-0.6 0.3-1.3 0.3-0.7 0-1.3-0.3c-0.8 0.1-1.4 0.8-1.4 1.6z"/></svg>