<svg version="1.2" xmlns="http://www.w3.org/2000/svg" viewBox="0 0 20 20" width="20" height="20"><style>.a{fill:#29282d}</style><path fill-rule="evenodd" class="a" d="m19.8 4.6c-0.7-2.4-2.7-3.9-4.2-4.4-1.7-0.6-3.7 0-5.6 1.6-1.8-1.5-3.8-2.1-5.6-1.5-1.4 0.5-3.4 2-4.1 4.3-0.5 1.6-0.5 4.1 1.9 7.2 1.1 1.4 2.8 3.4 4.3 5 2.6 3 3.1 3.2 3.4 3.2 0.1 0 0.1 0 0.1 0h0.1c0.4 0 0.8-0.2 3.5-3.2 1.4-1.6 3.1-3.6 4.2-5 2.4-3.1 2.4-5.6 2-7.2zm-3.3 6.2c-2 2.4-5.3 6.3-6.5 7.4-1.1-1.1-4.5-5-6.4-7.4-1.7-2-2.3-4-1.7-5.7 0.5-1.8 2-2.8 3.1-3.2 1.2-0.5 2.9 0.1 4.4 1.6 0.3 0.3 0.7 0.4 1.1 0.2q0.1-0.1 0.2-0.2c1.5-1.5 3.2-2.1 4.4-1.7 1.1 0.5 2.6 1.5 3.1 3.3 0.5 1.7-0.1 3.7-1.7 5.7z"/></svg>