<svg version="1.2" xmlns="http://www.w3.org/2000/svg" viewBox="0 0 16 16" width="16" height="16"><style>.a{fill:#727272}</style><path fill-rule="evenodd" class="a" d="m8 0l-7.8 6.9c-0.2 0.2-0.3 0.6 0 0.9 0.2 0.3 0.6 0.3 0.9 0l0.3-0.2v6.4c0 1.1 0.8 2 1.9 2h3.6v-5.3c0-0.6 0.5-1.1 1.1-1.1 0.7 0 1.2 0.5 1.2 1.1v5.3h3.5c1.1 0 1.9-0.9 1.9-2v-6.4l0.3 0.2c0.3 0.3 0.7 0.3 0.9 0 0.3-0.3 0.2-0.7 0-0.9zm5.3 14c0 0.4-0.3 0.6-0.6 0.6h-2.3v-3.9c0-1.4-1.1-2.5-2.4-2.5-1.3 0-2.4 1.1-2.4 2.5v3.9h-2.3c-0.4 0-0.7-0.2-0.7-0.6v-7.6l5.4-4.7 5.3 4.7z"/></svg>