<svg version="1.2" xmlns="http://www.w3.org/2000/svg" viewBox="0 0 20 21" width="20" height="21"><style>.a{fill:#fe3e57}</style><path fill-rule="evenodd" class="a" d="m20 10.6c0 2.6-1 5.1-2.9 7-1.9 1.9-4.4 3-7.1 3-2.7 0-5.2-1.1-7.1-3-1.9-1.9-2.9-4.4-2.9-7 0-2.7 1-5.2 2.9-7.1 1.9-1.9 4.4-2.9 7.1-2.9 2.7 0 5.2 1 7.1 2.9 1.9 1.9 2.9 4.4 2.9 7.1zm-1.2 0c0-4.9-3.9-8.9-8.8-8.9-4.9 0-8.8 4-8.8 8.9 0 4.8 3.9 8.8 8.8 8.8 4.9 0 8.8-4 8.8-8.8zm-4-3.3c0.2 0.3 0.2 0.6 0 0.9l-5.6 5.6q-0.2 0.1-0.4 0.1-0.3 0-0.4-0.1l-3.2-3.2c-0.2-0.2-0.2-0.6 0-0.8 0.3-0.2 0.6-0.2 0.9 0l2.7 2.7 5.1-5.2c0.3-0.2 0.6-0.2 0.9 0z"/></svg>