<?xml version="1.0" encoding="UTF-8"?>
<svg xmlns="http://www.w3.org/2000/svg" xmlns:xlink="http://www.w3.org/1999/xlink" width="29px" height="29px" viewBox="0 0 29 29" version="1.1">
<g id="surface1">
<path style=" stroke:none;fill-rule:nonzero;fill:rgb(0%,0%,0%);fill-opacity:1;" d="M 17.085938 14.5 L 28.8125 2.777344 C 29.0625 2.523438 29.0625 2.113281 28.8125 1.863281 L 27.136719 0.1875 C 27.015625 0.0703125 26.851562 0 26.679688 0 C 26.507812 0 26.34375 0.0703125 26.222656 0.1875 L 14.5 11.914062 L 2.777344 0.1875 C 2.535156 -0.0546875 2.105469 -0.0546875 1.863281 0.1875 L 0.191406 1.863281 C -0.0625 2.113281 -0.0625 2.523438 0.191406 2.777344 L 11.914062 14.5 L 0.191406 26.222656 C -0.0625 26.476562 -0.0625 26.886719 0.191406 27.136719 L 1.863281 28.8125 C 1.984375 28.929688 2.148438 29 2.320312 29 C 2.492188 29 2.65625 28.929688 2.777344 28.8125 L 14.5 17.085938 L 26.222656 28.8125 C 26.34375 28.929688 26.511719 29 26.679688 29 C 26.851562 29 27.019531 28.929688 27.140625 28.8125 L 28.8125 27.136719 C 29.0625 26.886719 29.0625 26.476562 28.8125 26.222656 Z M 17.085938 14.5 "/>
</g>
</svg>
