<svg version="1.2" xmlns="http://www.w3.org/2000/svg" viewBox="0 0 23 20" width="23" height="20"><style>.a{fill:#29282d}</style><path fill-rule="evenodd" class="a" d="m16.9 0c-2.4 0-4 1.4-4.8 2.6q-0.4 0.5-0.6 0.9-0.2-0.4-0.6-0.9c-0.8-1.2-2.4-2.6-4.8-2.6-1.7 0-3.3 0.7-4.4 2-1.1 1.2-1.7 2.8-1.7 4.5 0 1.9 0.7 3.7 2.3 5.5 1.5 1.7 3.5 3.4 5.9 5.4q1.4 1.2 2.8 2.4h0.1q0.2 0.2 0.4 0.2 0.2 0 0.4-0.2h0.1q1.4-1.2 2.8-2.4c2.4-2 4.4-3.7 5.9-5.4 1.6-1.8 2.3-3.6 2.3-5.5 0-1.7-0.6-3.3-1.7-4.5-1.1-1.3-2.7-2-4.4-2zm-3 16.4q-1.2 1-2.4 2.1-1.2-1.1-2.4-2.1c-4.7-3.9-7.8-6.5-7.8-9.9 0-1.4 0.5-2.7 1.4-3.7 0.9-0.9 2.1-1.5 3.4-1.5 1.9 0 3.1 1.1 3.7 2.1 0.6 0.8 1 1.7 1.1 2 0.1 0.3 0.3 0.5 0.6 0.5 0.3 0 0.6-0.2 0.6-0.5 0.2-0.3 0.5-1.2 1.1-2 0.7-1 1.8-2.1 3.7-2.1 1.3 0 2.5 0.6 3.4 1.5 0.9 1 1.4 2.3 1.4 3.7 0 3.4-3.1 6-7.8 9.9z"/></svg>