<?xml version="1.0" encoding="UTF-8"?>
<svg xmlns="http://www.w3.org/2000/svg" xmlns:xlink="http://www.w3.org/1999/xlink" width="30px" height="30px" viewBox="0 0 30 30" version="1.1">
<g id="surface1">
<path style=" stroke:none;fill-rule:nonzero;fill:#fff;fill-opacity:1;" d="M 25.3125 13.125 L 4.6875 13.125 C 4.167969 13.125 3.75 12.707031 3.75 12.1875 C 3.75 11.667969 4.167969 11.25 4.6875 11.25 L 25.3125 11.25 C 25.832031 11.25 26.25 11.667969 26.25 12.1875 C 26.25 12.707031 25.832031 13.125 25.3125 13.125 Z M 25.3125 13.125 "/>
<path style=" stroke:none;fill-rule:nonzero;fill:#fff;fill-opacity:1;" d="M 21.5625 20.625 L 8.4375 20.625 C 7.917969 20.625 7.5 20.207031 7.5 19.6875 C 7.5 19.167969 7.917969 18.75 8.4375 18.75 L 21.5625 18.75 C 22.082031 18.75 22.5 19.167969 22.5 19.6875 C 22.5 20.207031 22.082031 20.625 21.5625 20.625 Z M 21.5625 20.625 "/>
<path style=" stroke:none;fill-rule:nonzero;fill:#fff;fill-opacity:1;" d="M 17.8125 28.125 L 12.1875 28.125 C 11.667969 28.125 11.25 27.707031 11.25 27.1875 C 11.25 26.667969 11.667969 26.25 12.1875 26.25 L 17.8125 26.25 C 18.332031 26.25 18.75 26.667969 18.75 27.1875 C 18.75 27.707031 18.332031 28.125 17.8125 28.125 Z M 17.8125 28.125 "/>
<path style=" stroke:none;fill-rule:nonzero;fill:#fff;fill-opacity:1;" d="M 27.1875 5.625 L 2.8125 5.625 C 2.292969 5.625 1.875 5.207031 1.875 4.6875 C 1.875 4.167969 2.292969 3.75 2.8125 3.75 L 27.1875 3.75 C 27.707031 3.75 28.125 4.167969 28.125 4.6875 C 28.125 5.207031 27.707031 5.625 27.1875 5.625 Z M 27.1875 5.625 "/>
</g>
</svg>
