<svg version="1.2" xmlns="http://www.w3.org/2000/svg" viewBox="0 0 9 10" width="9" height="10"><style>.a{fill:#727272}</style><path fill-rule="evenodd" class="a" d="m8.9 4.8q0.1 0.1 0.1 0.2 0 0.1-0.1 0.2l-4.3 4.7q-0.1 0.1-0.2 0.1-0.2 0-0.3-0.1l-0.4-0.5q-0.1-0.1-0.1-0.2 0-0.2 0.1-0.3l3.6-3.9-3.6-3.9q-0.1-0.1-0.1-0.3 0-0.1 0.1-0.2l0.4-0.5q0.1-0.1 0.3-0.1 0.1 0 0.2 0.1zm-3.5 0.2q0 0.2-0.1 0.3l-4.3 4.6q-0.1 0.1-0.3 0.1-0.1 0-0.2-0.1l-0.4-0.5q-0.1-0.1-0.1-0.2 0-0.1 0.1-0.2l3.6-4-3.6-3.9q-0.1-0.1-0.1-0.2 0-0.2 0.1-0.3l0.4-0.5q0.1-0.1 0.2-0.1 0.2 0 0.3 0.1l4.3 4.7q0.1 0.1 0.1 0.2z"/></svg>